<svg xmlns="http://www.w3.org/2000/svg" width="534" height="418" viewBox="0 0 534 418">
    <defs>
        <linearGradient id="prefix__a" x1="57.102%" x2="1.172%" y1="28.116%" y2="199.745%">
            <stop offset="0%" stop-color="#F4C828"/>
            <stop offset="100%" stop-color="#E3540A"/>
        </linearGradient>
    </defs>
    <g fill="none">
        <g>
            <path fill="#003873" d="M5.445 259.419L309.497 83.238c6.314-3.645 14.093-3.645 20.407 0l198.714 113.825c3.32 1.863 5.375 5.374 5.375 9.181 0 3.808-2.055 7.318-5.375 9.182L224.755 391.944c-6.334 3.652-14.135 3.652-20.47 0L5.467 277.74c-3.3-1.866-5.348-5.362-5.348-9.154s2.03-7.294 5.327-9.167z" transform="translate(0 22.563)"/>
            <path fill="#53576D" d="M61.252 277.72c8.95 5.222 3.433 1.79 12.846 7.201 8.087 4.664 18.047 4.664 26.135 0l138.527-80.277c2.366-1.376 3.821-3.907 3.821-6.644s-1.455-5.268-3.821-6.644l-25.398-14.847-152.11 87.943c-2.356 1.379-3.803 3.904-3.803 6.633 0 2.73 1.447 5.255 3.803 6.634z" transform="translate(0 22.563)"/>
            <path fill="#19265E" d="M173.476 308.992l102.2-58.966c1.808-1.033 4.027-1.033 5.834 0l41.634 23.797c.692.364 1.125 1.082 1.125 1.864s-.433 1.5-1.125 1.864L221.09 336.832c-1.812 1.042-4.042 1.042-5.854 0l-41.76-24.134c-.682-.367-1.106-1.079-1.106-1.853s.424-1.485 1.105-1.853z" transform="translate(0 22.563)"/>
            <path fill="#FFBE27" d="M330.599 254.428c-6.588.017-13.063-1.712-18.764-5.012l-53.259-30.789c-10.926-6.254-24.347-6.254-35.274 0l-19.627 11.267-1.053-1.832 19.627-11.267c11.583-6.642 25.819-6.642 37.401 0l53.238 30.788c10.988 6.36 24.538 6.36 35.527 0l38.79-22.638c4.507-2.653 7.24-7.523 7.158-12.752-.083-5.229-2.97-10.01-7.557-12.52l-3.812-2.105c-10.423-5.685-23.035-5.621-33.4.168l-32.515 18.048c-11.794 6.53-26.183 6.232-37.696-.78l-1.811-1.094c-4.473-2.72-7.169-7.607-7.082-12.84.087-5.235 2.942-10.03 7.503-12.6l34.495-19.48 1.032 1.854-34.474 19.29c-3.907 2.2-6.355 6.307-6.433 10.79-.078 4.483 2.226 8.671 6.054 11.006l1.81 1.116c10.87 6.603 24.444 6.877 35.57.716l32.515-18.026c10.998-6.145 24.38-6.216 35.443-.19l3.79 2.106c5.286 2.863 8.617 8.354 8.713 14.364.096 6.01-3.058 11.605-8.25 14.635l-38.77 22.638c-5.728 3.36-12.248 5.134-18.89 5.139z" transform="translate(0 22.563)"/>
            <path fill="#B0BBC3" d="M292.229 34.528l12.762 7.37 19.922 65.747v71.16l-30.347-18.786c-1.82-1.13-2.928-3.121-2.927-5.264V35.939l.59-1.411z" transform="translate(0 22.563)"/>
            <path fill="#D8E0E5" d="M292.229 34.528l.526-.969L351.447.812c1.303-.752 2.909-.752 4.212 0l11.309 6.529-61.893 34.537-12.846-7.35z" transform="translate(0 22.563)"/>
            <path fill="#FFF" d="M324.913 107.645L386.806 73.108 366.884 7.362 304.991 41.899z" transform="translate(0 22.563)"/>
            <path fill="#D8E0E5" d="M324.913 178.804l57.639-32.178c2.61-1.466 4.22-4.23 4.211-7.223V73.108l-61.85 34.537v71.16z" transform="translate(0 22.563)"/>
            <path fill="#656882" d="M376.866 51.333L365.62 13.806c-.137-.452-.472-.817-.91-.993-.438-.176-.932-.144-1.343.087l-53.448 30.6c-.727.43-1.086 1.285-.885 2.105l11.267 37.549c.132.45.462.815.897.992.435.176.927.144 1.335-.087l53.448-30.62c.732-.425 1.093-1.285.885-2.106z" transform="translate(0 22.563)"/>
            <path fill="#F07C0F" d="M362.019 21.829L361.092 18.755 356.838 21.198 357.765 24.272zM355.47 25.578L354.564 22.503 350.289 24.946 351.216 28.021z" transform="translate(0 22.563)"/>
            <path fill="#B0BBC3" d="M326.387 42.194L325.902 40.551 317.058 45.689 317.563 47.353zM316.342 48.048L315.836 46.405 313.562 47.711 314.046 49.354zM380.446 70.329L379.793 68.454 367.726 75.488 368.316 77.383zM327.44 45.774L326.955 44.11 322.049 46.974 322.554 48.617zM321.164 49.438L320.68 47.795 314.615 51.27 315.099 52.913zM341.002 67.401L340.518 65.759 329.483 72.161 329.988 73.824zM328.619 74.646L328.114 73.003 322.049 76.478 322.554 78.12zM376.36 58.788L375.876 57.146 364.841 63.548 365.346 65.211zM363.977 66.032L363.472 64.369 357.175 67.991 357.723 69.613zM369.453 66.032L368.947 64.369 358.102 70.708 358.649 72.308zM377.392 61.463L376.845 59.841 370.379 63.548 370.864 65.211zM378.361 64.306L377.813 62.684 365.704 69.739 366.189 71.403zM364.82 72.224L364.314 70.56 359.092 73.572 359.639 75.193zM322.407 53.06L321.922 51.417 315.857 54.892 316.342 56.535zM345.509 103.37l7.328-4.211c.317-.179.705-.177 1.02.005.316.181.512.515.517.879v14.741c.007 1.385-.734 2.664-1.937 3.349l-7.286 4.212c-.318.178-.705.176-1.02-.005-.316-.182-.512-.516-.518-.88V106.72c-.006-1.373.715-2.647 1.896-3.349zM331.588 111.268l7.329-4.212c.32-.18.712-.176 1.03.01.316.187.51.528.507.895v14.742c.002 1.383-.737 2.66-1.937 3.348l-7.287 4.212c-.32.18-.712.176-1.029-.01-.316-.187-.51-.528-.508-.896v-14.741c-.01-1.374.712-2.65 1.895-3.348zM359.26 95.473l7.329-4.212c.315-.192.71-.197 1.03-.013.32.184.515.528.507.898v14.741c.002 1.383-.738 2.661-1.937 3.349l-7.287 4.211c-.32.18-.712.177-1.029-.01-.317-.187-.51-.528-.508-.895V98.8c-.003-1.367.718-2.633 1.895-3.328zM373.012 87.597l7.328-4.212c.319-.189.714-.193 1.036-.01.322.183.522.524.523.895V99.01c-.003 1.387-.75 2.666-1.959 3.349l-7.286 4.211c-.317.179-.705.177-1.02-.005-.316-.181-.512-.515-.518-.88v-14.74c-.019-1.377.706-2.657 1.896-3.349z" transform="translate(0 22.563)"/>
            <path fill="#19265E" d="M85.196 118.533l161.63-93.692c1.956-1.14 4.373-1.145 6.335-.014 1.961 1.13 3.168 3.225 3.162 5.49v133.22c.003 5.26-2.798 10.123-7.35 12.761l-161.587 93.65c-1.952 1.127-4.356 1.129-6.31.005-1.954-1.125-3.16-3.205-3.167-5.459V131.379c-.045-5.278 2.734-10.177 7.287-12.846z" transform="translate(0 22.563)"/>
            <path fill="#FFF" d="M90.082 121.039l161.65-93.713c1.955-1.13 4.365-1.129 6.32 0 1.955 1.13 3.157 3.217 3.157 5.475v133.241c-.005 5.254-2.805 10.107-7.35 12.741L92.21 272.454c-1.955 1.13-4.365 1.129-6.32 0-1.954-1.13-3.157-3.217-3.157-5.475v-133.2c.005-5.252 2.805-10.106 7.35-12.74z" transform="translate(0 22.563)"/>
            <path fill="url(#prefix__a)" d="M93.81 124.85l159.375-91.586c.65-.375 1.45-.376 2.1-.003.651.373 1.055 1.064 1.06 1.815v111.17c.002 4.518-2.407 8.693-6.319 10.952L90.714 248.742c-.653.377-1.458.376-2.11-.002-.652-.379-1.052-1.077-1.05-1.83V135.76c0-4.49 2.38-8.642 6.256-10.91z" transform="translate(0 22.563)"/>
            <path fill="#C5D3DD" d="M129.252 251.037l25.924 15.163c4.166 2.42 9.311 2.42 13.478 0l54.143-31.252c1.137-.67 1.835-1.892 1.835-3.212 0-1.32-.698-2.541-1.835-3.211l-27.377-15.963-66.168 38.475z" transform="translate(0 22.563)"/>
            <path fill="#B0BBC3" d="M143.846 259.608L210.309 221.238 195.462 212.604 129.252 251.037z" transform="translate(0 22.563)"/>
            <path fill="#FFF" d="M173.476 306.338l102.2-58.965c1.805-1.042 4.029-1.042 5.834 0l41.634 23.797c.68.367 1.105 1.079 1.105 1.853s-.424 1.485-1.105 1.853L221.09 334.18c-1.809 1.054-4.045 1.054-5.854 0l-41.76-24.134c-.682-.368-1.106-1.08-1.106-1.853 0-.774.424-1.486 1.105-1.854z" transform="translate(0 22.563)"/>
            <path fill="#142351" d="M273.465 252.89l4.549-2.611c.555-.253 1.193-.253 1.748 0l4.549 2.611c.266.108.41.397.337.674-.066.151-.187.271-.337.337l-4.55 2.612c-.554.253-1.192.253-1.747 0l-4.549-2.612c-.266-.107-.41-.396-.337-.674.066-.15.186-.27.337-.337M264.978 257.776l4.55-2.611c.554-.253 1.192-.253 1.747 0l4.549 2.611c.256.106.399.382.337.653-.066.15-.186.271-.337.337l-4.549 2.611c-.555.253-1.193.253-1.748 0l-4.549-2.611c-.256-.106-.399-.382-.337-.653 0 0 .169-.253.337-.337M256.407 262.725l4.528-2.611c.561-.26 1.208-.26 1.769 0l4.549 2.611c.224.066.379.271.379.505 0 .234-.155.44-.38.506l-4.548 2.611c-.561.26-1.208.26-1.769 0l-4.528-2.506c-.266-.107-.41-.396-.337-.674.066-.15.186-.27.337-.337M247.92 267.674l4.528-2.59c.561-.26 1.208-.26 1.77 0l4.464 2.59c.266.107.41.396.337.674-.066.15-.187.27-.337.337l-4.55 2.611c-.56.26-1.207.26-1.768 0l-4.528-2.611c-.266-.108-.41-.397-.337-.674.075-.176.233-.303.421-.337M239.35 272.56l4.527-2.612c.561-.26 1.208-.26 1.769 0l4.549 2.612c.266.107.41.396.337.674-.066.15-.186.27-.337.336l-4.549 2.612c-.561.26-1.208.26-1.769 0l-4.528-2.612c-.266-.107-.41-.396-.337-.673 0-.169.169-.253.337-.337M230.862 277.509l4.528-2.59c.561-.26 1.208-.26 1.77 0l4.548 2.59c.26.114.401.397.337.673-.066.151-.186.272-.337.337l-4.549 2.612c-.56.26-1.208.26-1.769 0l-4.528-2.548c-.266-.108-.41-.397-.336-.674 0-.169.168-.253.336-.337M222.291 282.478l4.528-2.61c.561-.26 1.208-.26 1.77 0l4.527 2.61c.224.066.379.272.379.506 0 .234-.155.44-.38.505l-4.527 2.612c-.567.231-1.202.231-1.769 0l-4.528-2.612c-.266-.107-.41-.396-.337-.674 0-.168.169-.337.337-.337M213.805 287.343l4.527-2.59c.561-.26 1.208-.26 1.77 0l4.527 2.59c.266.107.41.397.337.674-.066.15-.186.271-.337.337l-4.528 2.611c-.56.26-1.208.26-1.769 0l-4.527-2.611c-.267-.107-.411-.396-.337-.674.065-.15.186-.271.337-.337M205.212 292.313l4.55-2.611c.56-.26 1.207-.26 1.768 0l4.528 2.611c.266.107.41.397.337.674-.066.15-.186.271-.337.337l-4.528 2.59c-.56.26-1.208.26-1.769 0l-4.549-2.59c-.266-.107-.41-.396-.337-.674.066-.15.187-.271.337-.337M196.726 297.178l4.548-2.59c.561-.26 1.208-.26 1.77 0l4.527 2.59c.266.107.411.396.337.674-.066.15-.186.27-.337.337l-4.528 2.61c-.56.26-1.208.26-1.769 0l-4.548-2.61c-.233-.128-.346-.398-.274-.653 0 0 .168-.253.337-.337M188.155 302.148l4.548-2.612c.561-.26 1.208-.26 1.77 0l4.527 2.612c.225.065.38.271.38.505 0 .234-.155.44-.38.506l-4.528 2.59c-.56.26-1.208.26-1.769 0l-4.548-2.59c-.267-.108-.411-.397-.337-.674.065-.151.186-.271.337-.337M184.216 304.506c.556-.253 1.193-.253 1.748 0l4.55 2.59c.266.108.41.397.336.675-.066.15-.186.27-.337.336l-4.59 2.612c-.556.253-1.194.253-1.749 0l-4.57-2.654c-.204-.085-.336-.284-.336-.505 0-.221.132-.42.337-.505l4.611-2.549zM289.68 262.304l4.55-2.612c.56-.26 1.207-.26 1.768 0l4.528 2.612c.267.107.411.396.337.674-.066.15-.186.27-.337.337l-4.528 2.632c-.56.26-1.207.26-1.769 0l-4.548-2.611c-.267-.108-.411-.397-.337-.674.01-.182.155-.327.337-.337M281.11 267.19l4.548-2.612c.561-.26 1.208-.26 1.77 0l4.527 2.612c.257.106.4.382.337.652-.066.151-.186.271-.337.337l-4.528 2.612c-.56.26-1.208.26-1.769 0l-4.548-2.612c-.257-.106-.4-.382-.337-.653.066-.15.186-.27.337-.336M272.623 272.138l4.549-2.61c.56-.26 1.207-.26 1.769 0l4.527 2.61c.267.108.411.397.337.674-.066.151-.186.271-.337.337l-4.527 2.612c-.562.26-1.208.26-1.77 0l-4.548-2.612c-.267-.107-.411-.396-.337-.674.01-.181.155-.326.337-.337M264.052 277.003l4.548-2.59c.556-.253 1.193-.253 1.748 0l4.55 2.59c.266.107.41.396.336.674-.066.15-.186.271-.337.337l-4.549 2.674c-.555.254-1.192.254-1.748 0l-4.548-2.61c-.421-.254-.421-.675 0-1.012M255.565 281.973l4.549-2.611c.555-.253 1.192-.253 1.748 0l4.548 2.611c.267.107.411.396.337.674-.066.15-.186.271-.337.337l-4.548 2.611c-.556.253-1.193.253-1.748 0l-4.55-2.611c-.266-.107-.41-.397-.336-.674 0-.168.168-.253.337-.337M246.994 287.006l4.528-2.59c.56-.26 1.207-.26 1.768 0l4.55 2.59c.266.107.41.397.336.674-.066.15-.186.271-.337.337l-4.527 2.527c-.562.26-1.208.26-1.77 0l-4.548-2.611c-.267-.108-.411-.397-.337-.674 0-.169.168-.337.337-.337M238.57 291.808l4.528-2.612c.56-.26 1.208-.26 1.769 0l4.549 2.612c.266.107.41.396.337.674-.066.15-.187.27-.337.337l-4.528 2.61c-.561.26-1.208.26-1.77 0l-4.548-2.61c-.266-.108-.41-.397-.337-.674 0-.169.169-.253.337-.337M229.936 296.757l4.528-2.59c.56-.26 1.208-.26 1.769 0l4.548 2.59c.225.065.38.271.38.505 0 .234-.155.44-.38.505l-4.548 2.612c-.561.26-1.208.26-1.77 0l-4.527-2.612c-.225-.065-.38-.271-.38-.505 0-.234.155-.44.38-.505M221.365 301.748l4.528-2.696c.56-.26 1.207-.26 1.768 0l4.591 2.696c.267.107.411.396.337.673-.066.151-.186.272-.337.337l-4.548 2.59c-.561.26-1.208.26-1.77 0l-4.527-2.59c-.266-.107-.411-.396-.337-.673 0-.169.168-.253.337-.253M212.878 306.591l4.528-2.59c.56-.26 1.208-.26 1.769 0l4.527 2.59c.267.108.411.397.337.674-.066.15-.186.271-.337.337l-4.527 2.57c-.561.259-1.208.259-1.77 0l-4.527-2.612c-.266-.107-.411-.396-.337-.674 0-.168.168-.253.337-.337M195.799 316.489l13.12-7.56c.56-.26 1.208-.26 1.769 0l4.528 2.611c.266.107.41.397.336.674-.065.15-.186.271-.336.337l-13.015 7.56c-.561.26-1.208.26-1.769 0l-4.549-2.611c-.59-.253-.59-.674 0-1.011M277.34 260.03l8.824-5.034c.56-.26 1.208-.26 1.769 0l4.528 2.612c.256.106.399.382.336.652-.065.151-.186.272-.336.337l-8.824 5.055c-.561.26-1.208.26-1.77 0l-4.527-2.612c-.266-.107-.41-.396-.337-.674 0-.168.169-.252.337-.337M268.769 265l4.528-2.612c.56-.26 1.208-.26 1.769 0l4.527 2.611c.267.108.411.397.337.674-.066.151-.186.271-.337.337l-4.527 2.59c-.561.26-1.208.26-1.77 0l-4.527-2.653c-.266-.107-.411-.396-.337-.674.01-.181.155-.326.337-.337M260.282 269.864l4.528-2.59c.56-.26 1.208-.26 1.769 0l4.528 2.59c.224.066.379.271.379.505 0 .234-.155.44-.38.506l-4.527 2.611c-.561.26-1.208.26-1.77 0l-4.527-2.611c-.505-.253-.505-.674 0-1.011M251.69 274.834l4.549-2.611c.56-.26 1.208-.26 1.769 0l4.527 2.611c.267.107.411.396.337.674-.065.15-.186.271-.337.337l-4.527 2.59c-.561.26-1.208.26-1.77 0l-4.548-2.59c-.258-.115-.393-.402-.316-.674.05-.153.166-.277.316-.337M243.203 279.699l4.549-2.612c.567-.231 1.202-.231 1.769 0l4.528 2.612c.266.107.41.396.337.674-.066.15-.187.27-.337.337l-4.528 2.61c-.561.26-1.208.26-1.77 0l-4.548-2.632c-.266-.107-.41-.396-.337-.673 0 0 .169-.253.337-.337M234.632 284.669l4.549-2.612c.56-.26 1.208-.26 1.769 0l4.528 2.612c.266.107.41.396.336.674-.065.15-.186.27-.336.336l-4.528 2.59c-.561.26-1.208.26-1.77 0l-4.548-2.59c-.266-.107-.41-.396-.337-.673.066-.151.186-.272.337-.337M226.145 289.618l4.549-2.612c.561-.26 1.208-.26 1.769 0l4.528 2.612c.266.107.41.396.337.673-.066.151-.187.272-.337.337l-4.528 2.696c-.561.26-1.208.26-1.769 0l-4.549-2.611c-.505-.337-.505-.759 0-1.011M217.511 294.503l4.549-2.611c.555-.253 1.193-.253 1.748 0l4.548 2.611c.267.108.411.397.337.674-.065.15-.186.271-.337.337l-4.527 2.59c-.555.254-1.193.254-1.748 0l-4.57-2.674c-.266-.107-.41-.397-.337-.674 0 0 .169-.253.337-.337M209.087 299.452l4.55-2.611c.554-.253 1.192-.253 1.747 0l4.549 2.611c.266.107.41.397.337.674-.066.15-.186.271-.337.337l-4.528 2.611c-.555.254-1.193.254-1.748 0l-4.57-2.611c-.266-.107-.41-.396-.337-.674 0-.168.169-.253.337-.337M200.516 304.422l4.528-2.611c.561-.26 1.208-.26 1.769 0l4.549 2.611c.256.106.399.382.337.653-.066.15-.187.271-.337.337l-4.55 2.653c-.56.26-1.207.26-1.768 0l-4.528-2.611c-.263-.099-.409-.381-.337-.653 0-.168.169-.337.337-.337M187.733 311.814l8.74-5.139c.561-.26 1.208-.26 1.769 0l4.549 2.612c.266.107.41.396.337.674-.066.15-.187.27-.337.337l-8.74 5.117c-.561.26-1.208.26-1.769 0l-4.549-2.59c-.266-.108-.41-.397-.337-.674.01-.182.156-.327.337-.337M293.471 269.443l8.824-5.118c.561-.26 1.208-.26 1.77 0l4.527 2.612c.234.048.403.255.403.495s-.169.446-.403.495l-8.824 5.054c-.555.253-1.193.253-1.748 0l-4.549-2.612c-.266-.107-.41-.396-.337-.673 0-.169.169-.253.337-.253M284.9 274.37l4.528-2.61c.561-.26 1.208-.26 1.769 0l4.549 2.61c.266.108.41.397.337.675-.066.15-.187.27-.337.337l-4.528 2.548c-.561.26-1.208.26-1.769 0l-4.549-2.59c-.266-.108-.41-.397-.337-.674 0 0 .169-.253.337-.337M276.477 279.277l4.527-2.59c.561-.26 1.208-.26 1.77 0l4.548 2.59c.266.108.411.397.337.674-.066.151-.186.271-.337.337l-4.528 2.612c-.56.26-1.208.26-1.769 0l-4.548-2.612c-.267-.107-.411-.396-.337-.674.066-.15.186-.27.337-.337M267.842 284.247l4.528-2.61c.561-.26 1.208-.26 1.769 0l4.549 2.61c.266.108.41.397.337.674-.066.151-.186.271-.337.337l-4.549 2.59c-.561.26-1.208.26-1.769 0l-4.528-2.59c-.42-.337-.42-.758 0-1.01M259.356 289.112l4.527-2.611c.567-.232 1.202-.232 1.77 0l4.506 2.611c.266.107.41.397.337.674-.066.15-.186.271-.337.337l-4.528 2.611c-.56.26-1.208.26-1.769 0l-4.528-2.611c-.266-.107-.41-.396-.336-.674 0-.168.168-.253.336-.337M250.784 294.082l4.528-2.611c.561-.26 1.208-.26 1.77 0l4.527 2.611c.266.107.41.396.337.674-.066.15-.186.271-.337.337l-4.528 2.59c-.56.26-1.208.26-1.769 0l-4.528-2.59c-.266-.107-.41-.396-.337-.674.066-.15.187-.271.337-.337M242.277 299.031l4.548-2.611c.561-.26 1.208-.26 1.77 0l4.527 2.611c.266.107.41.396.337.674-.066.15-.186.271-.337.337l-4.528 2.611c-.56.26-1.208.26-1.769 0l-4.548-2.611c-.252-.122-.384-.403-.316-.674.057-.15.17-.27.316-.337M233.705 303.854l4.55-2.612c.56-.26 1.207-.26 1.768 0l4.528 2.612c.266.107.41.396.337.673-.066.151-.186.272-.337.337l-4.528 2.59c-.56.26-1.208.26-1.769 0l-4.549-2.59c-.189-.097-.308-.292-.308-.505 0-.213.12-.408.308-.505M225.219 308.866l4.548-2.612c.561-.26 1.208-.26 1.77 0l4.443 2.612c.224.065.379.271.379.505 0 .234-.155.44-.38.505l-4.527 2.612c-.56.26-1.208.26-1.769 0l-4.549-2.612c-.42-.337-.42-.758 0-1.01M216.648 313.751l4.548-2.611c.561-.26 1.208-.26 1.77 0l4.527 2.611c.257.106.4.382.337.653-.066.15-.186.271-.337.337l-4.528 2.611c-.56.26-1.208.26-1.769 0l-4.548-2.61c-.264-.1-.41-.382-.337-.654 0 0 .168-.252.337-.337M203.886 321.143l8.823-5.054c.556-.253 1.193-.253 1.748 0l4.55 2.611c.266.108.41.397.336.674-.066.15-.186.271-.337.337l-8.824 5.033c-.56.26-1.208.26-1.769 0l-4.527-2.59c-.267-.107-.411-.396-.337-.674 0-.168.168-.337.337-.337M280.183 286.417l4.549-2.59c.56-.26 1.208-.26 1.769 0l4.527 2.59c.267.107.411.396.337.673-.065.151-.186.272-.337.337l-4.527 2.612c-.561.26-1.208.26-1.77 0l-4.548-2.612c-.266-.107-.41-.396-.337-.674 0-.168.253-.252.337-.336M297.262 276.603l13.099-7.581c.56-.26 1.208-.26 1.769 0l4.549 2.611c.224.066.379.271.379.505 0 .234-.155.44-.38.506l-13.12 7.56c-.56.26-1.207.26-1.768 0l-4.528-2.611c-.191-.09-.313-.283-.313-.495 0-.212.122-.404.313-.495M288.775 281.552l4.528-2.696c.56-.26 1.208-.26 1.769 0l4.528 2.612c.266.107.41.396.337.674-.066.15-.187.27-.337.336l-4.528 2.612c-.561.26-1.208.26-1.77 0l-4.527-2.612c-.266-.107-.41-.396-.337-.673 0-.169.169-.253.337-.253M276.245 288.923c.561-.26 1.208-.26 1.769 0l4.528 2.61c.266.108.41.397.337.675-.066.15-.187.27-.337.337L252.49 309.77c-.555.253-1.193.253-1.748 0l-4.548-2.59c-.267-.107-.411-.397-.337-.674 0-.169.168-.253.337-.337l30.051-17.247zM229.01 316.005l4.527-2.59c.561-.26 1.208-.26 1.769 0l4.549 2.59c.224.065.379.271.379.505 0 .234-.155.44-.38.505l-4.548 2.612c-.561.26-1.208.26-1.769 0l-4.528-2.612c-.189-.097-.308-.292-.308-.505 0-.213.12-.408.308-.505M220.522 320.975l4.528-2.612c.561-.26 1.208-.26 1.77 0l4.548 2.612c.266.107.41.396.337.674-.066.15-.186.27-.337.336l-4.549 2.59c-.56.26-1.208.26-1.769 0l-4.528-2.59c-.266-.107-.41-.396-.337-.673.01-.182.156-.327.337-.337M211.951 325.84l4.528-2.591c.561-.26 1.208-.26 1.77 0l4.548 2.59c.266.108.41.397.337.674-.066.15-.186.271-.337.337l-4.549 2.611c-.561.26-1.208.26-1.769 0l-4.528-2.61c-.266-.108-.41-.397-.337-.675.066-.15.187-.27.337-.337M237.39 311.014l4.55-2.612c.56-.26 1.208-.26 1.769 0l4.527 2.612c.225.065.38.271.38.505 0 .234-.155.44-.38.505l-4.527 2.59c-.561.26-1.208.26-1.77 0l-4.548-2.59c-.19-.097-.308-.292-.308-.505 0-.213.119-.408.308-.505" transform="translate(0 22.563)"/>
            <path fill="#2E476B" d="M273.465 251.753l4.549-2.611c.555-.253 1.193-.253 1.748 0l4.549 2.611c.266.107.41.397.337.674-.066.15-.187.271-.337.337l-4.55 2.653c-.554.254-1.192.254-1.747 0l-4.549-2.61c-.266-.108-.41-.397-.337-.675.066-.15.186-.27.337-.337M264.978 256.618l4.55-2.59c.554-.254 1.192-.254 1.747 0l4.549 2.59c.266.107.41.396.337.674-.066.15-.186.27-.337.337l-4.549 2.611c-.555.253-1.193.253-1.748 0l-4.549-2.611c-.266-.108-.41-.397-.337-.674 0 0 .169-.253.337-.337M256.407 261.588l4.528-2.612c.561-.26 1.208-.26 1.769 0l4.549 2.612c.224.065.379.271.379.505 0 .234-.155.44-.38.506l-4.548 2.611c-.567.232-1.202.232-1.769 0l-4.528-2.611c-.266-.108-.41-.397-.337-.674.066-.151.186-.271.337-.337M247.92 266.537l4.528-2.59c.561-.26 1.208-.26 1.77 0l4.464 2.59c.266.107.41.396.337.674-.066.15-.187.27-.337.337l-4.55 2.61c-.56.26-1.207.26-1.768 0l-4.528-2.61c-.266-.108-.41-.397-.337-.674.075-.176.233-.303.421-.337M239.35 271.422l4.527-2.61c.561-.26 1.208-.26 1.769 0l4.549 2.61c.266.108.41.397.337.674-.066.151-.186.271-.337.337l-4.549 2.59c-.561.26-1.208.26-1.769 0l-4.528-2.59c-.266-.107-.41-.396-.337-.674 0-.168.169-.252.337-.337M230.862 276.477l4.528-2.59c.561-.26 1.208-.26 1.77 0l4.548 2.59c.26.114.401.397.337.674-.066.15-.186.27-.337.336l-4.549 2.612c-.56.26-1.208.26-1.769 0l-4.528-2.612c-.266-.107-.41-.396-.336-.673 0-.169.168-.253.336-.337M222.291 281.341l4.528-2.611c.561-.26 1.208-.26 1.77 0l4.527 2.611c.224.066.379.272.379.506 0 .234-.155.44-.38.505l-4.527 2.548c-.561.26-1.208.26-1.769 0l-4.528-2.59c-.266-.107-.41-.396-.337-.674 0-.168.169-.337.337-.337M213.805 286.206l4.527-2.59c.561-.26 1.208-.26 1.77 0l4.527 2.59c.266.107.41.396.337.674-.066.15-.186.27-.337.337l-4.528 2.611c-.56.26-1.208.26-1.769 0l-4.527-2.611c-.267-.108-.411-.397-.337-.674.065-.15.186-.271.337-.337M205.212 291.218l4.55-2.611c.56-.26 1.207-.26 1.768 0l4.528 2.611c.266.107.41.396.337.674-.066.15-.186.271-.337.337l-4.528 2.59c-.56.26-1.208.26-1.769 0l-4.549-2.59c-.266-.107-.41-.397-.337-.674.066-.15.187-.271.337-.337M196.726 296.04l4.548-2.61c.567-.232 1.202-.232 1.77 0l4.527 2.61c.266.108.411.397.337.674-.066.151-.186.272-.337.337l-4.528 2.59c-.56.26-1.208.26-1.769 0l-4.548-2.61c-.267-.108-.411-.397-.337-.675 0 0 .168-.252.337-.336M188.155 301.01l4.548-2.61c.561-.26 1.208-.26 1.77 0l4.527 2.61c.225.066.38.272.38.506 0 .234-.155.44-.38.505l-4.528 2.59c-.56.26-1.208.26-1.769 0l-4.548-2.59c-.267-.107-.411-.396-.337-.674.065-.15.186-.27.337-.336M184.216 303.348c.556-.253 1.193-.253 1.748 0l4.55 2.611c.266.108.41.397.336.674-.066.151-.186.271-.337.337l-4.59 2.612c-.556.253-1.194.253-1.749 0l-4.57-2.612c-.204-.085-.336-.284-.336-.505 0-.221.132-.42.337-.506l4.611-2.61zM289.68 261.167l4.55-2.612c.56-.26 1.207-.26 1.768 0l4.528 2.612c.267.107.411.396.337.674-.066.15-.186.27-.337.336l-4.528 2.612c-.56.26-1.207.26-1.769 0l-4.548-2.612c-.267-.107-.411-.396-.337-.673.01-.182.155-.327.337-.337M281.11 265.947l4.548-2.59c.561-.26 1.208-.26 1.77 0l4.527 2.59c.266.107.411.396.337.674-.066.15-.186.271-.337.337l-4.528 2.611c-.56.26-1.208.26-1.769 0l-4.548-2.611c-.267-.107-.411-.397-.337-.674.066-.15.186-.271.337-.337M272.623 271.001l4.549-2.611c.56-.26 1.207-.26 1.769 0l4.527 2.611c.267.108.411.397.337.674-.066.15-.186.271-.337.337l-4.527 2.611c-.567.232-1.203.232-1.77 0l-4.548-2.61c-.267-.108-.411-.397-.337-.675.01-.181.155-.326.337-.337M264.052 275.866l4.548-2.59c.556-.254 1.193-.254 1.748 0l4.55 2.59c.266.107.41.396.336.674-.066.15-.186.27-.337.337l-4.549 2.611c-.555.253-1.192.253-1.748 0l-4.548-2.611c-.421-.253-.421-.674 0-1.011M255.565 280.836l4.549-2.611c.555-.254 1.192-.254 1.748 0l4.548 2.61c.267.108.411.397.337.675-.066.15-.186.27-.337.337l-4.548 2.59c-.556.253-1.193.253-1.748 0l-4.55-2.59c-.266-.108-.41-.397-.336-.674 0-.169.168-.253.337-.337M246.994 285.785l4.528-2.59c.56-.26 1.207-.26 1.768 0l4.55 2.59c.266.107.41.396.336.674-.066.15-.186.27-.337.337l-4.527 2.61c-.562.26-1.208.26-1.77 0l-4.548-2.61c-.267-.108-.411-.397-.337-.674 0-.169.168-.337.337-.337M238.57 290.67l4.528-2.61c.56-.26 1.208-.26 1.769 0l4.549 2.61c.266.108.41.397.337.674-.066.151-.187.271-.337.337l-4.528 2.59c-.561.26-1.208.26-1.77 0l-4.548-2.59c-.266-.107-.41-.396-.337-.674 0-.168.169-.252.337-.337M229.936 295.62l4.528-2.59c.56-.26 1.208-.26 1.769 0l4.548 2.59c.225.065.38.27.38.505 0 .234-.155.44-.38.505l-4.548 2.612c-.561.26-1.208.26-1.77 0l-4.527-2.612c-.225-.065-.38-.271-.38-.505 0-.234.155-.44.38-.506M221.365 300.59l4.528-2.696c.56-.26 1.207-.26 1.768 0l4.55 2.611c.266.107.41.397.336.674-.066.15-.186.271-.337.337l-4.549 2.59c-.56.26-1.207.26-1.768 0l-4.528-2.59c-.267-.107-.411-.396-.337-.674 0-.168.168-.253.337-.253M212.878 305.454l4.528-2.611c.567-.232 1.202-.232 1.769 0l4.527 2.611c.267.107.411.396.337.674-.066.15-.186.271-.337.337l-4.527 2.611c-.561.26-1.208.26-1.77 0l-4.527-2.611c-.266-.107-.411-.397-.337-.674 0-.169.168-.253.337-.337M195.799 315.289l13.12-7.56c.56-.26 1.208-.26 1.769 0l4.528 2.61c.266.108.41.397.336.675-.065.15-.186.27-.336.337l-13.015 7.56c-.561.26-1.208.26-1.769 0l-4.549-2.612c-.59-.252-.59-.673 0-1.01M277.34 258.892l8.824-5.033c.56-.26 1.208-.26 1.769 0l4.528 2.59c.266.108.41.397.336.674-.065.151-.186.271-.336.337l-8.824 5.054c-.561.26-1.208.26-1.77 0l-4.527-2.61c-.266-.108-.41-.397-.337-.675 0-.168.169-.253.337-.337M268.769 263.841l4.528-2.611c.56-.26 1.208-.26 1.769 0l4.527 2.611c.267.107.411.397.337.674-.066.15-.186.271-.337.337l-4.527 2.59c-.561.26-1.208.26-1.77 0l-4.527-2.59c-.266-.107-.411-.396-.337-.674.01-.182.155-.326.337-.337M260.282 268.727l4.528-2.611c.56-.26 1.208-.26 1.769 0l4.528 2.61c.224.066.379.272.379.506 0 .234-.155.44-.38.506l-4.527 2.527c-.561.26-1.208.26-1.77 0l-4.527-2.612c-.505-.252-.505-.673 0-1.01M251.69 273.697l4.549-2.612c.56-.26 1.208-.26 1.769 0l4.527 2.612c.267.107.411.396.337.674-.06.15-.183.265-.337.316l-4.527 2.61c-.561.26-1.208.26-1.77 0l-4.548-2.61c-.262-.1-.401-.386-.316-.653.05-.154.166-.277.316-.337M243.203 278.583l4.549-2.612c.561-.26 1.208-.26 1.769 0l4.528 2.612c.266.107.41.396.337.673-.066.151-.187.272-.337.337l-4.528 2.612c-.561.26-1.208.26-1.77 0l-4.548-2.612c-.266-.107-.41-.396-.337-.674 0 0 .169-.252.337-.336M234.632 283.531l4.549-2.61c.56-.26 1.208-.26 1.769 0l4.528 2.61c.256.107.399.383.336.653-.065.151-.186.271-.336.337l-4.528 2.612c-.561.26-1.208.26-1.77 0l-4.548-2.612c-.257-.106-.4-.382-.337-.653.066-.15.186-.27.337-.337M226.145 288.48l4.549-2.611c.561-.26 1.208-.26 1.769 0l4.528 2.611c.266.108.41.397.337.674-.066.151-.187.271-.337.337l-4.528 2.612c-.561.26-1.208.26-1.769 0l-4.549-2.612c-.505-.337-.505-.758 0-1.01M217.511 293.324l4.549-2.59c.555-.254 1.193-.254 1.748 0l4.548 2.59c.267.107.411.396.337.674-.065.15-.186.27-.337.337l-4.527 2.632c-.555.253-1.193.253-1.748 0l-4.57-2.611c-.266-.107-.41-.397-.337-.674 0 0 .169-.253.337-.337M209.087 298.315l4.55-2.611c.554-.254 1.192-.254 1.747 0l4.549 2.611c.266.107.41.396.337.674-.066.15-.186.27-.337.337l-4.528 2.611c-.555.253-1.193.253-1.748 0l-4.57-2.611c-.266-.108-.41-.397-.337-.674 0-.169.169-.253.337-.337M200.516 303.264l4.528-2.59c.561-.26 1.208-.26 1.769 0l4.549 2.59c.266.107.41.396.337.674-.066.15-.187.27-.337.337l-4.55 2.611c-.56.26-1.207.26-1.768 0l-4.528-2.611c-.266-.108-.41-.397-.337-.674 0-.169.169-.337.337-.337M187.733 310.677l8.719-5.139c.56-.26 1.208-.26 1.769 0l4.549 2.527c.266.108.41.397.337.674-.066.151-.187.271-.337.337l-8.719 5.307c-.561.26-1.208.26-1.769 0l-4.549-2.59c-.266-.107-.41-.397-.337-.674.01-.182.156-.327.337-.337M293.471 268.306l8.824-5.118c.561-.26 1.208-.26 1.77 0l4.527 2.59c.224.066.379.272.379.506 0 .234-.155.44-.38.505l-8.823 5.055c-.555.253-1.193.253-1.748 0l-4.549-2.612c-.266-.107-.41-.396-.337-.674 0-.168.169-.252.337-.252M284.9 273.191l4.528-2.61c.561-.26 1.208-.26 1.769 0l4.549 2.61c.266.108.41.397.337.674-.066.151-.187.271-.337.337l-4.528 2.59c-.561.26-1.208.26-1.769 0l-4.549-2.59c-.266-.107-.41-.396-.337-.674 0 0 .169-.252.337-.337M276.477 278.14l4.527-2.611c.561-.26 1.208-.26 1.77 0l4.548 2.611c.266.108.411.397.337.674-.066.15-.186.271-.337.337l-4.528 2.611c-.56.26-1.208.26-1.769 0l-4.548-2.61c-.267-.108-.411-.397-.337-.675.066-.15.186-.27.337-.337M267.842 283.11l4.528-2.611c.561-.26 1.208-.26 1.769 0l4.549 2.611c.266.108.41.397.337.674-.067.145-.188.259-.337.316l-4.549 2.611c-.561.26-1.208.26-1.769 0l-4.528-2.611c-.42-.316-.42-.737 0-.99M259.356 287.975l4.527-2.611c.561-.26 1.208-.26 1.77 0l4.527 2.61c.266.108.41.397.337.675-.066.15-.186.27-.337.337l-4.528 2.611c-.56.26-1.208.26-1.769 0l-4.527-2.611c-.267-.108-.411-.397-.337-.674 0-.169.168-.253.337-.337M250.784 292.945l4.528-2.611c.561-.26 1.208-.26 1.77 0l4.527 2.61c.263.1.409.382.337.654-.066.15-.186.27-.337.337l-4.528 2.611c-.56.26-1.208.26-1.769 0l-4.528-2.611c-.256-.106-.399-.382-.337-.653.066-.15.187-.271.337-.337M242.277 297.894l4.548-2.612c.561-.26 1.208-.26 1.77 0l4.527 2.612c.266.107.41.396.337.674-.066.15-.186.27-.337.337l-4.528 2.611c-.56.26-1.208.26-1.769 0l-4.548-2.611c-.252-.122-.384-.403-.316-.674.057-.15.17-.27.316-.337M233.705 302.758l4.55-2.59c.56-.26 1.207-.26 1.768 0l4.528 2.59c.266.108.41.397.337.674-.066.151-.186.271-.337.337l-4.528 2.612c-.56.26-1.208.26-1.769 0l-4.549-2.527c-.189-.098-.308-.293-.308-.506 0-.213.12-.408.308-.505M225.219 307.728l4.548-2.61c.561-.26 1.208-.26 1.77 0l4.443 2.61c.224.066.379.272.379.506 0 .234-.155.44-.38.505l-4.527 2.612c-.56.26-1.208.26-1.769 0l-4.549-2.612c-.42-.337-.42-.758 0-1.01M216.648 312.593l4.548-2.59c.561-.26 1.208-.26 1.77 0l4.527 2.59c.266.107.411.396.337.674-.066.15-.186.271-.337.337l-4.528 2.611c-.56.26-1.208.26-1.769 0l-4.548-2.611c-.267-.107-.411-.396-.337-.674 0 0 .168-.253.337-.337M203.886 320.006l8.823-5.054c.556-.254 1.193-.254 1.748 0l4.55 2.611c.266.107.41.396.336.674-.066.15-.186.271-.337.337l-8.824 5.033c-.56.26-1.208.26-1.769 0l-4.527-2.59c-.267-.108-.411-.397-.337-.674 0-.169.168-.337.337-.337M280.183 285.28l4.549-2.59c.56-.26 1.208-.26 1.769 0l4.527 2.59c.267.107.411.396.337.673-.065.151-.186.271-.337.337l-4.527 2.612c-.561.26-1.208.26-1.77 0l-4.548-2.612c-.266-.107-.41-.396-.337-.674 0-.168.253-.252.337-.337M297.262 275.445l13.099-7.56c.56-.26 1.208-.26 1.769 0l4.549 2.61c.224.066.379.272.379.506 0 .234-.155.44-.38.506l-13.12 7.56c-.56.26-1.207.26-1.768 0l-4.528-2.59c-.19-.098-.308-.293-.308-.506 0-.213.119-.408.308-.505M288.775 280.415l4.528-2.696c.56-.26 1.208-.26 1.769 0l4.528 2.611c.266.108.41.397.337.674-.066.151-.187.271-.337.337l-4.528 2.612c-.567.231-1.202.231-1.77 0l-4.527-2.612c-.266-.107-.41-.396-.337-.674 0-.168.169-.252.337-.252M276.245 287.785c.561-.26 1.208-.26 1.769 0l4.528 2.612c.256.106.399.382.337.653-.066.15-.187.27-.337.336l-30.052 17.248c-.555.253-1.193.253-1.748 0l-4.548-2.675c-.267-.107-.411-.396-.337-.673 0-.169.168-.253.337-.316l30.051-17.185zM229.01 314.867l4.527-2.61c.567-.233 1.202-.233 1.769 0l4.549 2.61c.224.066.379.272.379.506 0 .234-.155.44-.38.505l-4.548 2.717c-.561.26-1.208.26-1.769 0l-4.528-2.611c-.189-.098-.308-.293-.308-.506 0-.213.12-.408.308-.505M220.522 319.837l4.528-2.61c.561-.26 1.208-.26 1.77 0l4.548 2.61c.266.108.41.397.337.674-.066.151-.186.271-.337.337l-4.549 2.59c-.56.26-1.208.26-1.769 0l-4.528-2.59c-.266-.107-.41-.396-.337-.674.01-.181.156-.326.337-.337M211.951 324.702l4.528-2.611c.561-.26 1.208-.26 1.77 0l4.548 2.611c.266.107.41.396.337.674-.066.15-.186.271-.337.337l-4.549 2.611c-.561.26-1.208.26-1.769 0l-4.528-2.611c-.266-.107-.41-.396-.337-.674.066-.15.187-.271.337-.337M237.39 309.876l4.55-2.61c.56-.26 1.208-.26 1.769 0l4.527 2.61c.225.066.38.272.38.506 0 .234-.155.44-.38.505l-4.527 2.59c-.561.26-1.208.26-1.77 0l-4.548-2.59c-.19-.097-.308-.292-.308-.505 0-.213.119-.408.308-.506" transform="translate(0 22.563)"/>
            <path fill="#FFF4A4" d="M102.612 147.784l38.349-22.323c.993-.583 2.222-.588 3.22-.013.998.575 1.61 1.642 1.603 2.793v1.748c.019 3.051-1.585 5.882-4.212 7.434l-38.433 22.386c-1.001.573-2.233.567-3.228-.016-.996-.582-1.604-1.653-1.595-2.806v-1.853c.045-3.034 1.675-5.822 4.296-7.35zM102.78 168.612l27.84-16.069c.992-.572 2.214-.571 3.205.002.991.574 1.6 1.633 1.598 2.778v1.79c.018 3.057-1.585 5.894-4.212 7.455l-27.84 16.068c-.995.57-2.217.568-3.21-.005-.993-.572-1.607-1.628-1.613-2.774v-1.811c-.01-3.055 1.6-5.885 4.233-7.434zM140.982 151.554v1.81c-.003 1.146.606 2.205 1.597 2.779.991.573 2.213.574 3.205.002l9.266-5.35c2.633-1.555 4.238-4.396 4.211-7.454v-1.79c.003-1.145-.606-2.205-1.597-2.778-.99-.574-2.213-.575-3.204-.002l-9.266 5.349c-2.624 1.555-4.227 4.384-4.212 7.434zM102.823 188.66l43.93-25.418c.994-.57 2.216-.568 3.209.004.993.573 1.607 1.63 1.613 2.775v1.77c.01 3.048-1.591 5.875-4.212 7.433l-44.035 25.44c-1 .573-2.232.567-3.228-.016-.995-.582-1.603-1.653-1.594-2.806v-1.853c.056-3.03 1.694-5.81 4.317-7.33zM98.464 216.1v1.79c-.003 1.145.606 2.204 1.597 2.778.99.574 2.212.574 3.204.002l22.786-13.246c2.627-1.552 4.231-4.383 4.212-7.434v-1.79c.003-1.145-.606-2.204-1.597-2.778-.991-.574-2.213-.575-3.205-.002l-22.722 13.246c-2.649 1.539-4.277 4.371-4.275 7.434z" transform="translate(0 22.563)"/>
            <path fill="#656882" d="M270.643 43.268l-101.315 58.418c-3.493 2.278-5.685 6.09-5.897 10.255v21.375c0 3.77 2.696 5.286 5.96 3.391l101.315-58.481c3.498-2.265 5.692-6.074 5.897-10.235V46.595c-.021-3.685-2.675-5.202-5.96-3.327zM270.643 90.672l-101.315 58.481c-3.493 2.279-5.685 6.09-5.897 10.256v21.396c0 3.77 2.696 5.265 5.96 3.39l101.315-58.502c3.498-2.264 5.692-6.073 5.897-10.235V94.083c-.021-3.77-2.675-5.307-5.96-3.411z" transform="translate(0 22.563)"/>
            <g>
                <path fill="#E6ECEF" d="M11.805 79.805c-1.98 1.137-3.559.21-3.58-2.106v-3.39c.137-2.49 1.45-4.765 3.538-6.128l35.8-20.702c1.96-1.116 3.56-.231 3.56 2.106v3.37c-.136 2.5-1.458 4.786-3.56 6.149l-35.8 20.701m93.271-71.2l-.147 12.171-3.496-.99-9.477 18.722-8.95-4.949-6.55 9.161-6.823-2.759-8.234 14.742-2.421-1.243 10.403-18.7 7.265 2.927 6.634-9.203 8.423 4.612L98.78 19.05l-3.685-1.032 10.003-9.393m2.548-7.455L6.31 59.567C2.815 61.848.618 65.657.39 69.823v21.375c0 3.77 2.696 5.265 5.96 3.39l101.315-58.502c3.49-2.271 5.682-6.076 5.897-10.234V4.477c0-3.77-2.653-5.307-5.939-3.412" transform="translate(0 22.563) translate(166.367 44.224)"/>
                <path fill="#656882" d="M47.627 47.564l-35.8 20.7c-2.088 1.364-3.402 3.64-3.539 6.129v3.37c0 2.253 1.6 3.18 3.58 2.105l35.8-20.7c2.102-1.364 3.425-3.65 3.56-6.15v-3.37c0-2.253-1.6-3.137-3.56-2.105" transform="translate(0 22.563) translate(166.367 44.224)"/>
                <path fill="#003873" d="M105.076 8.604L95.073 17.997 98.758 19.028 91.64 33.075 83.301 28.463 76.667 37.666 69.402 34.76 58.999 53.439 61.421 54.682 69.655 39.898 76.478 42.657 82.964 33.644 91.893 38.592 101.433 19.787 104.929 20.776 105.076 8.604" transform="translate(0 22.563) translate(166.367 44.224)"/>
            </g>
            <g>
                <path fill="#E6ECEF" d="M11.805 80.115c-1.98 1.116-3.559.21-3.58-2.106v-3.348c.134-2.496 1.448-4.78 3.538-6.15l21.649-12.403c1.958-1.138 3.559-.211 3.58 2.106v3.348c-.135 2.495-1.459 4.774-3.56 6.128L11.806 80.2m32.768-18.954c-1.958 1.137-3.559.232-3.58-2.106v-3.348c.129-2.503 1.453-4.791 3.56-6.15l7.243-4.211c1.98-1.138 3.58-.232 3.58 2.106v3.369c-.145 2.492-1.466 4.767-3.558 6.128l-7.266 4.212m60.503-53.638l-1.537 12.846-3.117-1.705-7.139 12.088-6.823-2.506-9.33 21.248-9.35-1.6-4.211 6.886-2.233-1.537 6.17-9.982 8.761 1.495 9.561-21.754 7.329 2.695 4.99-8.423-3.264-1.77 10.32-8.044m2.548-6.065L6.414 59.961C2.924 62.236.726 66.037.496 70.196v21.396c0 3.77 2.696 5.265 5.96 3.39L107.772 36.48c3.49-2.271 5.681-6.076 5.896-10.234V4.87c0-3.77-2.653-5.286-5.938-3.39" transform="translate(0 22.563) translate(166.367 91.908)"/>
                <path fill="#656882" d="M33.412 56.108L11.763 68.596c-2.09 1.37-3.404 3.653-3.538 6.149v3.348c0 2.254 1.6 3.16 3.58 2.106L33.433 67.69c2.1-1.354 3.424-3.633 3.559-6.128v-3.348c0-2.254-1.622-3.18-3.58-2.106M51.796 45.578l-7.244 4.212c-2.106 1.358-3.43 3.646-3.559 6.15v3.348c0 2.253 1.622 3.158 3.58 2.105l7.266-4.211c2.092-1.362 3.413-3.636 3.559-6.129v-3.37c0-2.252-1.6-3.158-3.58-2.105" transform="translate(0 22.563) translate(166.367 91.908)"/>
                <path fill="#003873" d="M105.076 7.545L94.757 15.569 98 17.359 93.03 25.803 85.702 23.108 76.141 44.862 67.38 43.367 61.21 53.349 63.442 54.886 67.717 48 77.067 49.6 86.418 28.352 93.22 30.858 100.422 18.685 103.539 20.391 105.076 7.545" transform="translate(0 22.563) translate(166.367 91.908)"/>
            </g>
            <path fill="#19265E" d="M376.866 51.333L365.62 13.806c-.137-.452-.472-.817-.91-.993-.438-.176-.932-.144-1.343.087l11.245 37.486c.202.82-.158 1.675-.884 2.105L320.28 83.175c.132.45.462.815.897.992.435.176.926.144 1.335-.087l53.448-30.62c.75-.421 1.121-1.294.906-2.127z" transform="translate(0 22.563)"/>
        </g>
        <g transform="translate(12.635)">
            <path fill="#19265E" d="M396.872 55.26c-.116 2.697-1.107 5.284-2.822 7.37-1.55 2.744-1.55 6.1 0 8.845 1.537 2.106 6.528 4.212 13.035 3.538 6.508-.674 7.413-5.286 6.845-8.003-.569-2.716-2.106-4.57-2.822-7.897-.716-3.327-.548-8.613-1.348-10.677-2.106-5.454-8.571-4.57-9.413-3.222l-3.475 10.045z"/>
            <path fill="#FFA8A7" d="M378.045 82.72c-2.14 1.456-4.543 2.48-7.076 3.012-1.043-.06-2.072-.273-3.054-.632-1.039-.249-2.094-.425-3.158-.526-.948-.232-1.095-.527-1.306 0-.21.526.379 1.326 1.306 1.705.926.38 1.558.274 1.726.422.169.147-.61.379-1.747.484-1.12.007-2.236-.113-3.328-.358-.884 0-.884.653-.59.905.553.507 1.24.844 1.98.97.903.182 1.818.301 2.738.357-.693.146-1.398.224-2.106.232-1.39 0-1.938-.169-2.654-.105-.716.063-.358 1.158.422 1.39.798.248 1.627.383 2.464.4.926 0 2.463-.127 2.463-.127-1.064.354-2.185.511-3.306.463-.695 0-1.01.38-.884.695.126.316.652.611 2.106.738 1.834.019 3.646-.4 5.285-1.222 1.664-.8 2.275-1.263 3.18-1.58 2.944-.972 5.77-2.271 8.424-3.874-.87-1.193-1.834-2.312-2.885-3.349z"/>
            <path fill="#563B66" d="M399.694 62.42c-2.614-.85-5.459.306-6.74 2.737-2.46 4.316-5.33 8.385-8.57 12.151-3.167 3.077-6.834 5.59-10.846 7.434-.568.232-1.116.442-1.684.632.06.179.13.355.21.526.59 1.517 1.137 2.885 1.58 4.338 1.031-.358 2.105-.737 3.095-1.179 4.15-1.742 7.967-4.186 11.288-7.223 4.505-4.393 8.516-9.266 11.962-14.53 2.485-3.75 1.747-4.444-.295-4.887z"/>
            <ellipse cx="157.807" cy="236.548" fill="#B0BBC3" rx="7.076" ry="4.107" transform="rotate(-59.84 157.807 236.548)"/>
            <path fill="#19265E" d="M178.973.821l-24.008 13.773c-5.47 3.25-8.871 9.096-8.992 15.457v27.777c0 1.551.618 3.038 1.716 4.133 1.099 1.094 2.588 1.706 4.138 1.7 1.04.054 2.068-.234 2.928-.82l24.007-14.005c5.489-3.193 8.841-9.087 8.782-15.436V5.833c0-3.221-2.612-5.833-5.834-5.833-.976-.026-1.936.262-2.737.821z"/>
            <path fill="#E6ECEF" d="M183.816 2.696L159.81 16.489c-5.533 3.174-8.952 9.058-8.971 15.437v27.777c.005 1.584.65 3.1 1.787 4.201 1.138 1.103 2.673 1.699 4.257 1.653 1.041.046 2.07-.25 2.927-.842l24.007-13.983c5.417-3.202 8.812-8.958 8.993-15.247V7.708c.005-1.555-.61-3.047-1.709-4.146-1.1-1.1-2.591-1.714-4.146-1.709-1.098.027-2.174.316-3.138.843z"/>
            <path fill="#19265E" d="M92.02 52.1L67.99 65.894c-5.473 3.237-8.876 9.08-8.992 15.436v27.777c-.006 1.555.61 3.047 1.708 4.146 1.1 1.1 2.592 1.715 4.146 1.709 1.042.046 2.07-.25 2.927-.842l24.008-13.984c5.485-3.207 8.835-9.103 8.781-15.457V57.112c.006-1.554-.609-3.046-1.708-4.145-1.1-1.1-2.592-1.715-4.146-1.71-.965-.01-1.908.285-2.696.843z"/>
            <path fill="#E6ECEF" d="M96.821 53.975L72.814 67.768c-5.544 3.176-8.972 9.069-8.993 15.458v27.756c.011 1.586.66 3.1 1.802 4.203 1.14 1.101 2.678 1.697 4.263 1.651 1.042.046 2.07-.25 2.928-.842L96.82 102.01c5.464-3.166 8.898-8.935 9.077-15.247V58.966c.005-1.55-.608-3.036-1.703-4.131-1.095-1.096-2.582-1.708-4.13-1.703-1.135.01-2.249.3-3.244.843z"/>
            <path fill="#19265E" d="M32.927 182.393L9.025 196.187C3.552 199.433.15 205.282.033 211.645V239.4c-.006 1.555.61 3.047 1.709 4.146 1.099 1.1 2.591 1.715 4.146 1.709 1.041.046 2.069-.25 2.927-.842l24.007-13.984c5.489-3.203 8.84-9.102 8.782-15.457v-27.546c0-1.55-.618-3.037-1.716-4.132-1.099-1.094-2.588-1.707-4.139-1.7-1.002-.042-1.99.238-2.822.8z"/>
            <path fill="#E6ECEF" d="M37.729 184.289L13.722 198.06c-5.541 3.18-8.968 9.07-8.993 15.458v27.777c.017 1.582.668 3.092 1.809 4.189 1.14 1.097 2.674 1.69 4.256 1.644 1.038.043 2.063-.244 2.928-.821l24.007-14.004c5.423-3.192 8.815-8.957 8.971-15.247V189.3c.006-1.551-.606-3.04-1.7-4.139-1.095-1.098-2.582-1.716-4.133-1.716-1.098.027-2.174.316-3.138.843z"/>
            <path fill="#53576D" d="M294.587 244.813c6.552-3.854 14.677-3.854 21.228 0l19.711 11.54c1.879 1.148 3.024 3.19 3.024 5.391s-1.145 4.244-3.024 5.391c-6.488 3.722-14.464 3.722-20.953 0l-19.88-11.519c-1.9-1.127-3.073-3.164-3.095-5.372-.02-2.208 1.112-4.268 2.99-5.431z"/>
            <path fill="#FFA8A7" d="M324.239 123.112c.932 3.427 1.218 6.998.842 10.53-.505 2.758-1.453 5.011-2.8 5.348-.889.194-1.808.194-2.696 0v3.917c-1.826-.36-3.611-.903-5.328-1.621-.868-.647-1.586-1.473-2.106-2.422l2.106-6.318s-.674-6.633 2.295-8.318c2.417-1.053 5.07-1.438 7.687-1.116z"/>
            <path fill="#142351" d="M323.523 255.09c1.81 1.579 11.119 2.906 11.92 3.622.8.716-1.159 3.559-5.455 4.001-2.373.103-4.748-.131-7.055-.695-1.85.019-3.692-.258-5.454-.821-.695-.485 0-6.107 0-6.107h6.044zM313.183 244.118c.379 1.516-1.495 4.822-3.012 6.044-1.516 1.221-2.716 5.475-3.727 5.665-1.011.19-2.422.168-2.927-.948-.117-2.667.51-5.313 1.81-7.645 1.011-1.01 3.665-3.832 5.54-3.832.926 0 2.21.231 2.316.716z"/>
            <path fill="#19265E" d="M329.377 185.973c-.421 10.677-1.41 35.232-1.832 38.265-.421 3.032-4.022 30.852-4.022 30.852-1.032.825-2.302 1.298-3.622 1.347-.88-.072-1.72-.393-2.422-.926v-31.273l-2.401-38.265h14.3z"/>
            <path fill="#19265E" d="M306.296 180.73c-.61 3.222-4.359 5.96-3.517 11.477.57 3.643 2.633 26.787 2.633 26.787-.729 3.718-1.193 7.483-1.39 11.267v20.554c.58.534 1.32.86 2.106.926.916.02 1.806-.31 2.485-.926l5.623-33.232 3.832-31.589-11.772-5.264z"/>
            <path fill="#0259AF" d="M306.296 139.58c-4.654 0-6.423 5.328-6.57 8.424-.147 3.095-.842 17.079-.758 17.816.426 1.493 1.817 2.502 3.37 2.443 1.325-.061 2.647-.195 3.958-.4V139.58z"/>
            <path fill="#0081FF" d="M306.296 138.675c-3.222 1.432-4.548 4.085-5.138 7.812-.59 3.728 2.485 17.943 2.8 21.776.422 5.033-1.2 16.847-1.81 21.185-.133.944.316 1.874 1.137 2.359 2.8 1.663 9.392 5.201 13.836 4.464 14.467-2.358 12.909-5.812 12.909-5.812s1.811-27.84-2.78-42.94c-1.221-4.043-6.718-4.085-11.54-5.728-4.065-1.369-7.37-4.022-9.414-3.116z"/>
            <path fill="#F28F8F" d="M313.393 130.272c1.651.88 2.863 2.405 3.349 4.212.452 2.011 1.803 3.704 3.664 4.59-.206-.02-.41-.055-.61-.105v2.738c-1.736-.037-3.455-.343-5.097-.905-1.116-.5-2.263-.929-3.433-1.285l2.317-5.244c-.134-1.33-.197-2.665-.19-4.001z"/>
            <path fill="#E6ECEF" d="M320.322 141.096c-.07-.279-.324-.471-.61-.463-1.557.258-3.154.105-4.634-.442-1.121-.625-2.143-1.413-3.032-2.338-.095-.095-.224-.148-.358-.148-.135 0-.264.053-.358.148l-1.306 1.432c.874 1.534 2.239 2.728 3.875 3.39 2.014.76 4.189.992 6.317.675.167-.02.319-.11.418-.245.1-.135.14-.306.109-.471l-.421-1.538z"/>
            <path fill="#0E1D42" d="M325.755 117.931c.695 1.559 0 5.623-1.853 6.634-1.853 1.01-2.296 1.685-2.4 2.4.005 1.119-.107 2.234-.338 3.328-.334.34-.736.605-1.18.78 0 0 0-2.802-1.242-2.97-.677-.027-1.326.273-1.744.808-.417.534-.552 1.237-.362 1.887.274 1.685 1.432 2.738 2.106 2.464.674-.273-.42 4.212-2.232 4.78-1.811.57-3.433-1.473-4.338-2.758-1.628-2.43-2.911-5.073-3.812-7.855-.168-1.643-.295-4.57.61-5.56 4.276-4.548 15.669-6.465 16.785-3.938z"/>
            <path fill="#FFA8A7" d="M357.66 157.944c-.673.96-1.466 1.83-2.359 2.59-.969.695-1.748 1.074-1.727.863.021-.21.61-.631 1.074-1.558.463-.927.4-2.106-.168-2.211-.569-.106-.38-.21-.969.632-.76.851-1.463 1.752-2.106 2.695-.445.89-1.095 1.662-1.895 2.253-1.316.797-2.733 1.413-4.212 1.833.412.559.778 1.15 1.095 1.769.606.796 1.095 1.676 1.453 2.61 1.095-.42 2.106-.863 3.264-1.326 1.159-.463 1.727-.421 3.601-.926 1.882-.483 3.622-1.407 5.076-2.696 1.137-1.158 1.368-1.769 1.221-2.106-.147-.337-.59-.4-1.2 0-.878.809-1.89 1.457-2.99 1.916 0 0 1.326-.926 2.105-1.6.658-.584 1.238-1.249 1.727-1.98.442-.695 0-1.874-.632-1.39-.631.485-.947 1.011-2.106 1.917-.595.49-1.236.92-1.916 1.284.697-.652 1.345-1.356 1.937-2.105.506-.598.827-1.33.927-2.106.021-.485-.484-1.074-1.2-.358z"/>
            <path fill="#0259AF" d="M350.184 171.611l-9.098 3.496c-6.284 2.152-13.154-.983-15.647-7.14l-.105-.23-6.697-16.322c-.632-3.411.61-5.812 2.906-6.78 2.333-1.054 5.084-.137 6.318 2.105l5.707 17.332c.765 2.102 3.04 3.24 5.18 2.59l8.635-3.327c2.464-.906 3.58 8.002 2.8 8.276z"/>
            <path fill="#53576D" d="M417.404 183.025c-4.864 2.801-14.425 1.853-21.354-2.106l-10.192-5.875c-6.929-3.98-8.592-9.519-3.728-12.341 4.865-2.822 14.447-1.853 21.354 2.106l10.214 5.875c6.929 3.98 8.571 9.52 3.706 12.341z"/>
            <path fill="#142351" d="M397.904 165.988c1.305-.379 1.179 4.465 1.179 4.465.181.165.41.268.653.295.248.007.492-.067.695-.211-.099-1.73.079-3.464.526-5.138.602-1.091.79-2.363.527-3.58l-3.58 4.17z"/>
            <path fill="#FFA8A7" d="M389.417 171.948c.547.484 3.538 1.58 5.033.168 1.495-1.41 1.432-2.99 2.4-4.211.995-1.146 2.127-2.164 3.37-3.033.475-.332.812-.827.948-1.39.148-.558.08-1.153-.19-1.663-.273-.653-.926-2.38-1.179-3.033-.318-.759-.461-1.58-.421-2.4v-7.772h-4.97s.653 5.981.695 8.108c-.044 1.044-.25 2.074-.61 3.054-.988 3.305-2.293 6.507-3.897 9.56-1.748 1.243-2.022 1.938-1.18 2.612z"/>
            <path fill="#142351" d="M390.49 169.358c-3.874 2.106-3.284 2.927-2.59 4.76 2.762 1.504 6.183 1.025 8.424-1.18.315-1.67.716-3.321 1.2-4.95.49-1.164 1.369-2.124 2.486-2.716.475-.285.872-.683 1.158-1.158.292-.477.459-1.02.484-1.58 0-1.158-.632-1.22-1.095-2.842-.231-.738-.379-.948-.695-.948.008 1.192-.596 2.305-1.6 2.948-1.38 1.73-2.28 3.793-2.612 5.981-.947 3.685-1.58 4.107-4.843 3.306-1.306-.4-1.011-.8-.316-1.621zM406.011 163.861s-.652 6.318-1.2 8.971c-.168.822-.295 1.327-.463 1.938-.169.61-1.18 1.285-1.285 1.895-.069.781.047 1.567.337 2.296 2.286 1.099 4.986.89 7.076-.548.969-1.41 0-3.77 0-5.623-.03-1.608.14-3.214.505-4.78.146-1.416-.125-2.843-.779-4.107l-4.19-.042z"/>
            <path fill="#FFA8A7" d="M405.043 175.128c-.127-.4 0-.78.231-1.727.421-3.171.674-6.363.759-9.56 0-1.812-.169-5.392-.169-5.392h4.338c-.147 1.773-.147 3.555 0 5.328.336 1.76.19 3.58-.42 5.265-.308 1.695-.435 3.417-.38 5.138 0 .229-.059.453-.168.653-.1.21-.252.392-.443.527-.674.245-1.389.36-2.106.337-1.347.02-1.748-.548-1.642-.57z"/>
            <path fill="#19265E" d="M397.84 57.05c-1.22 0-2.674-2.107-3.032-3.497-.566-2.346-.098-4.823 1.285-6.802.554-.788 1.403-1.32 2.354-1.474.951-.155 1.924.08 2.7.653 0 0-2.106 11.246-3.306 11.12z"/>
            <path fill="#FFA8A7" d="M391.754 97.188c-1.98 5.791-.968 30.725-.526 33.105.442 2.38 3.875 24.766 3.875 24.766.625.414 1.356.64 2.106.652.749-.017 1.478-.243 2.106-.652 0 0 .737-16.153.737-19.585-.13-1.947-.615-3.852-1.432-5.623l2-21.586.19-3.327s1.621 21.901 2.316 26.008c.59 3.306.78 7.392 1.432 13.014.653 5.623 1.285 17.058 1.285 17.058 1.233.76 2.79.76 4.022 0 1.295-5.994 2.265-12.054 2.906-18.153-.09-3.446-.599-6.869-1.516-10.192 0 0 .506-6.318.864-11.772.358-5.455 2.421-15.921.884-22.576l-21.249-1.137zM399.883 59.408l-.19 3.011h-1.768c-1.788 1.458-2.78 3.677-2.675 5.981.4 3.201 6.823 5.56 8.866 4.612 2.043-.948 6.17-7.244 5.454-7.792-.716-.547-3.011-.99-3.116-1.453-.106-.463.252-6.676.252-6.676l-6.823 2.317z"/>
            <path fill="#563B66" d="M397.925 70.295c-1.517-.673 1.305-7.897 1.305-7.897-.574-.042-1.152-.042-1.726 0-4.78 4.718-9.582 10.783-3.938 15.71-.025 2.455.087 4.908.336 7.35 1.896 1.137 4.55.906 6.74 1.221 2.166.018 4.313-.397 6.317-1.221 1.595-2.708 3.003-5.523 4.212-8.424 1.054-3.368 1.22-6.951.484-10.403-.273-.969-2.253-1.895-4.022-2.106-2.085.99-7.476 6.76-9.708 5.77z"/>
            <path fill="#FFA8A7" d="M397.461 58.966c.906 1.495 1.58 2.4 2.696 2.38 2.122-.187 4.133-1.034 5.75-2.422.234-.485.418-.993.547-1.517 1.201-.794 2.116-1.953 2.611-3.306.5-1.35.565-2.822.19-4.212-.78-2.878-3.339-4.916-6.318-5.033-3.444-.18-6.397 2.435-6.634 5.876-.618 2.794-.207 5.718 1.158 8.234z"/>
            <path fill="#19265E" d="M402.116 49.047c2.158 1.052 3.459 3.312 3.285 5.707 0 1.095.884 1.032.884 1.032.106-.611.253 1.474.169 1.705 2.515-1.672 3.636-4.796 2.758-7.686-.296-1.205-.94-2.297-1.853-3.138-2.068-1.917-5.094-2.383-7.644-1.18-2.496 1.034-3.947 3.655-3.496 6.319.463-.506 4.991-3.054 5.897-2.76z"/>
            <path fill="#FFA8A7" d="M406.18 55.049c.127-.16.294-.284.484-.358.178-.084.372-.127.569-.127.197.014.39.064.569.148.184.083.344.214.463.379.821 1.305-.38 3.222-1.432 3.159-.548 0-.674-.316-.674-.316l.02-2.885z"/>
            <path fill="#FFF" d="M407.696 87.206c-2.38 1.091-4.963 1.666-7.581 1.685-2.411.334-4.837-.503-6.528-2.254.05-.725.22-1.437.505-2.106.421.674 1.558 1.664 5.202 2.106 2.644.044 5.279-.318 7.813-1.074.144.565.342 1.115.59 1.643z"/>
            <path fill="#19265E" d="M410.687 91.839c-1.087-1.484-2.086-3.031-2.99-4.633-2.777.54-5.597.822-8.424.842-1.953-.082-3.87-.547-5.644-1.369 0 0-1.854 7.35-2.506 12.404-.646 8.408-.78 16.847-.4 25.271.093 3.18.431 6.349 1.01 9.477.758 3.98 20.365 5.454 19.627-1.222 0 0 2.485-21.585 2.949-26.64.622-4.998-.672-10.047-3.622-14.13z"/>
            <path fill="#FFA8A7" d="M404.937 108.981c.211.506 1.285.61 2.212.169.926-.443 1.305-1.053 1.537-1.074.232-.021-.126.737-.842 1.705-.75.894-1.606 1.693-2.549 2.38-.673.653-.105 1.095.316 1.095.777-.1 1.508-.422 2.106-.926.75-.585 1.454-1.226 2.106-1.917-.357.677-.788 1.313-1.284 1.895-.927 1.117-1.454 1.411-1.896 2.106-.442.695.695 1.074 1.39.632.728-.476 1.387-1.05 1.959-1.706.631-.737 1.6-2.106 1.6-2.106-.447 1.095-1.097 2.096-1.916 2.949-.464.61-.4 1.032 0 1.2.4.169.884 0 2.106-1.2 1.29-1.434 2.208-3.162 2.674-5.033.506-1.854.569-2.633.948-3.58 1.338-3.175 2.292-6.498 2.843-9.898.625-3.897.575-7.872-.148-11.751-1.132-5.366-2.884-10.582-5.222-15.542-1.348-2.8-2.949-3.18-4.212-2.106-1.264 1.074-1.706 2.759-.442 5.286 2.04 4.223 3.696 8.621 4.949 13.14.82 3.784.99 7.68.505 11.52-.293 2.758-1.153 5.425-2.527 7.834-.753.793-1.628 1.461-2.59 1.98-.91.644-1.775 1.347-2.59 2.106-.885.505-1.201.316-1.033.842z"/>
            <path fill="#563B66" d="M413.024 84.595c.99 3.757 1.198 7.678.61 11.519-.306 1.569-.735 3.11-1.284 4.612 1.494.854 3.105 1.485 4.78 1.874.928-2.25 1.633-4.584 2.107-6.97.737-3.89.673-7.888-.19-11.751-1.322-5.594-3.376-10.99-6.107-16.047-.37-1.033-1.202-1.833-2.25-2.16-1.047-.327-2.186-.143-3.078.496-1.58.99-2.106 2.759-.527 5.286 2.428 4.164 4.418 8.567 5.94 13.14z"/>
            <path fill="#0081FF" d="M22.04 213.013c.607-.377 1.096-.917 1.41-1.558.696-1.285.612-2.611-.168-2.97v-4l-2.885-.211 1.2-1.495 2.844.231v13.268l4.443.716c.245.03.492-.03.695-.169.485-.319.866-.773 1.095-1.306.38-.926.21-1.748-.4-1.832l-3.243-.526v-11.73l2.78-3.433h.695l-1.39 1.727c-.614.605-.798 1.522-.464 2.317.232.336.653.358 1.138 0 .245-.148.46-.34.631-.57l2.675-3.326 2.422.231v3.37l-2.57 3.222c-.62.6-.813 1.518-.484 2.316.19.232.506.253.864 0l.147-.126c.253-.144.48-.33.674-.548l2.738-3.18 2.106.337v2.78l-2.928 3.622c-.623.609-.807 1.538-.463 2.338.315.292.801.292 1.116 0 .247-.161.468-.36.653-.59l1.622-2.106v1.327l-2.106 2.654-.127.147-2.232-.19v-3.285l2.653-3.243c.612-.613.81-1.527.506-2.337-.232-.358-.674-.38-1.137 0-.236.15-.449.335-.632.547l-2.675 3.285-2.337-.19v-2.147l3.053-3.79c.606-.608.81-1.508.527-2.317-.137-.171-.336-.28-.553-.305-.217-.023-.435.04-.605.178-.222.145-.42.323-.59.527l-4.36 5.412v5.728l3.602.316v3.601l-3.707 4.59v5.645c0 .821.59 1.158 1.306.737.766-.494 1.25-1.323 1.306-2.232v-3.917l2.611-3.265 2.106.21v3.223l-1.074 1.306v-2.106c0-.737-.61-1.011-1.306-.632h-.105c-.671.505-1.1 1.27-1.18 2.106v3.938l-2 2.506-2.674-.21v-3.37c0-.842-.569-1.158-1.306-.737-.763.494-1.24 1.325-1.285 2.232v3.517l-3.011 3.37-1.811-.169v-3.475l2.106-2.527h.126c1.111-.728 1.814-1.938 1.895-3.264 0-1.221-.863-1.706-1.895-1.116-1.102.71-1.81 1.894-1.916 3.2l-2.843 3.539v3.496l-1.39-.127v-5.18h-1.306l-2.106-.21v-.717l3.075-1.79 2.97-3.685.252-.148c1.117-.732 1.82-1.951 1.895-3.285 0-1.2-.842-1.706-1.895-1.095-1.067.693-1.764 1.83-1.895 3.096l-2.106 2.527-2.401 1.39v-3.875l2.106-2.633 1.305-1.579v-5.138l1.917-2.36 2.8.233v2.527c-.673 1.305-.61 2.632.17 2.99.423.152.894.089 1.263-.168m-.506-13.71l-4.212 5.139c-.235.212-.434.46-.59.737l-3.558 4.422v5.117l-3.39 4.212v11.014l3.432.274v5.096l4.212.38c.216.12.479.12.695 0l3.285.273 4.212-5.138 3.98.358 8.276-10.298v-5.097l3.412-4.211v-11.014l-3.39-.295v-5.118l-8.298-.716-4.212 5.139-4.212-.358"/>
            <g fill="#0081FF">
                <path d="M9.182 40.271c-.653.38-1.158 0-1.158-.674.009-.846.434-1.634 1.137-2.106.653-.379 1.179 0 1.179.653-.024.848-.455 1.632-1.158 2.106m0-17.479c-.632.379-1.158 0-1.158-.674.006-.852.441-1.644 1.158-2.106.653-.358 1.18 0 1.18.653-.012.856-.456 1.65-1.18 2.106m1.2-4.928L5.16 20.855 1.685 22.96c-.824.53-1.341 1.424-1.39 2.401v19.964c0 .885.61 1.243 1.39.8l3.474-2.105 5.223-3.012c.818-.522 1.329-1.41 1.369-2.38v-2.421c0-.885-.632-1.222-1.39-.78L5.138 38.44V26.456l5.202-3.011c.818-.525 1.335-1.41 1.39-2.38v-2.422c0-.884-.632-1.242-1.39-.8M19.564 34.27c-.632.378-1.158 0-1.158-.675.006-.852.441-1.644 1.158-2.106.653-.358 1.158 0 1.158.674-.04.815-.472 1.56-1.158 2.001m0-17.48c-.653.38-1.18 0-1.18-.652.019-.854.461-1.644 1.18-2.106.632-.358 1.158 0 1.158.674-.002.853-.439 1.647-1.158 2.106m3.032-5.98l-4.211 2.442c-.824.529-1.342 1.423-1.39 2.4v2.401c0 .885.632 1.243 1.39.8l5.201-3.01V27.74l-5.222 3.096c-.816.536-1.332 1.426-1.39 2.4v2.401c0 .885.61 1.243 1.39.8l5.201-3.011 3.496-2.106c.818-.522 1.329-1.41 1.369-2.38v-14.72c-3.201 1.853-5.834.358-5.855-3.348v-.127" transform="translate(156.44 9.176)"/>
                <path d="M28.409 13.505c-2.843 1.643-5.16.316-5.18-2.948.19-3.626 2.109-6.94 5.159-8.908 2.843-1.664 5.16-.337 5.18 2.948-.197 3.623-2.114 6.934-5.16 8.908m0-12.636c-3.394 2.216-5.554 5.896-5.833 9.94v.127c0 3.706 2.654 5.201 5.855 3.348 3.443-2.239 5.61-5.987 5.833-10.087 0-3.686-2.653-5.18-5.854-3.328" transform="translate(156.44 9.176)"/>
                <path d="M28.325 4.091c-.687.428-1.27 1.004-1.706 1.685l.274.506c.312-.53.745-.976 1.263-1.306.885-.527 1.2 0 1.2.653-.353 1.787-1.117 3.466-2.232 4.907l-.632 1.074v.59l3.833-2.212v-.8l-2.695 1.58.484-.801c1.092-1.44 1.815-3.124 2.106-4.907 0-.99-.569-1.706-1.853-.947" transform="translate(156.44 9.176)"/>
            </g>
            <g fill="#0081FF">
                <path d="M23.565.918l-3.938 2.274c-1.206.765-2.147 1.882-2.695 3.201l-4.97 11.435-2.717-3.075-4.212 2.464 7.013 7.94 8.613-19.86c.562-1.29 1.315-2.49 2.232-3.558l.737-.821" transform="translate(72.203 68.894)"/>
                <path d="M12.635 1.739C5.27 6.516.64 14.535.19 23.303c0 7.94 5.622 11.12 12.53 7.14 7.366-4.777 11.995-12.797 12.446-21.565.125-2.238-.48-4.455-1.727-6.318-.963 1.126-1.764 2.38-2.38 3.728.743 1.322 1.107 2.823 1.053 4.338-.348 6.643-3.856 12.718-9.434 16.342-5.202 3.011-9.477.59-9.498-5.412.372-6.637 3.873-12.702 9.434-16.342 1.493-.962 3.266-1.392 5.034-1.222.904-1.01 1.98-1.852 3.18-2.485l.863-.484c-2.274-1.474-5.497-1.348-9.077.716" transform="translate(72.203 68.894)"/>
            </g>
            <path fill="#D8E0E5" d="M335.372 73.735l.752-4.294 13.214 2.313c.905.159 1.51 1.02 1.352 1.926l-.175.996c-.076.434-.321.82-.683 1.074-.36.254-.808.354-1.242.278l-13.214-2.314-.004.021z"/>
            <path fill="#D8E0E5" d="M335.364 74.77l1.09-6.223 1.327.232c.402.07.759.298.993.631.235.334.327.747.256 1.149l-.57 3.256c-.146.837-.943 1.396-1.78 1.25l-1.327-.233.011-.062z"/>
            <path fill="#D8E0E5" d="M337 71.812c-.947 5.433-5.475 9.203-10.066 8.423-4.59-.779-7.58-5.875-6.633-11.33.947-5.454 5.475-9.202 10.087-8.423 4.612.78 7.56 5.896 6.613 11.33zm-14.446-2.527c-.043 3.362 2.556 6.168 5.911 6.384 3.356.216 6.293-2.234 6.682-5.574.389-3.34-1.907-6.399-5.222-6.96-3.727-.317-7.015 2.426-7.371 6.15z"/>
        </g>
    </g>
</svg>
